<?xml version="1.0" encoding="UTF-8" standalone="no"?>
<?xml-stylesheet href="style.css" type="text/css"?>
<!DOCTYPE svg PUBLIC "-//W3C//DTD SVG 1.1//EN"
 "http://www.w3.org/Graphics/SVG/1.1/DTD/svg11.dtd">
<!-- Generated by graphviz version 12.0.0 (20240704.0754)
 -->
<!-- Pages: 1 -->
<svg width="1920pt" height="163pt"
 viewBox="0.00 0.00 1440.00 122.49" xmlns="http://www.w3.org/2000/svg" xmlns:xlink="http://www.w3.org/1999/xlink">
<g id="graph0" class="graph" transform="scale(0.489707 0.489707) rotate(0) translate(4 329.5)">
<polygon fill="white" stroke="none" points="-4,4 -4,-329.5 3916.71,-329.5 3916.71,4 -4,4"/>
<g id="clust1" class="cluster">
<title>cluster_2072_ReentrancyGuard</title>
<polygon fill="none" stroke="black" points="8,-92.5 8,-169 744,-169 744,-92.5 8,-92.5"/>
<text text-anchor="middle" x="376" y="-151.7" font-family="Times,serif" font-size="14.00">ReentrancyGuard</text>
</g>
<g id="clust2" class="cluster">
<title>cluster_74_IERC20</title>
<polygon fill="none" stroke="black" points="2974,-92.5 2974,-169 3756,-169 3756,-92.5 2974,-92.5"/>
<text text-anchor="middle" x="3365" y="-151.7" font-family="Times,serif" font-size="14.00">IERC20</text>
</g>
<g id="clust3" class="cluster">
<title>cluster_2003_OrderBook</title>
<polygon fill="none" stroke="black" points="752,-92.5 752,-317.5 2820,-317.5 2820,-92.5 752,-92.5"/>
<text text-anchor="middle" x="1786" y="-300.2" font-family="Times,serif" font-size="14.00">OrderBook</text>
</g>
<g id="clust4" class="cluster">
<title>cluster_solidity</title>
<polygon fill="none" stroke="black" points="2099,-8 2099,-84.5 3107,-84.5 3107,-8 2099,-8"/>
<text text-anchor="middle" x="2603" y="-67.2" font-family="Times,serif" font-size="14.00">[Solidity]</text>
</g>
<!-- 2072_constructor -->
<g id="node1" class="node">
<title>2072_constructor</title>
<ellipse fill="none" stroke="black" cx="68" cy="-118.5" rx="52.38" ry="18"/>
<text text-anchor="middle" x="68" y="-113.45" font-family="Times,serif" font-size="14.00">constructor</text>
</g>
<!-- 2072__reentrancyGuardEntered -->
<g id="node2" class="node">
<title>2072__reentrancyGuardEntered</title>
<ellipse fill="none" stroke="black" cx="244" cy="-118.5" rx="106.11" ry="18"/>
<text text-anchor="middle" x="244" y="-113.45" font-family="Times,serif" font-size="14.00">_reentrancyGuardEntered</text>
</g>
<!-- 2072__nonReentrantAfter -->
<g id="node3" class="node">
<title>2072__nonReentrantAfter</title>
<ellipse fill="none" stroke="black" cx="453" cy="-118.5" rx="84.62" ry="18"/>
<text text-anchor="middle" x="453" y="-113.45" font-family="Times,serif" font-size="14.00">_nonReentrantAfter</text>
</g>
<!-- 2072__nonReentrantBefore -->
<g id="node4" class="node">
<title>2072__nonReentrantBefore</title>
<ellipse fill="none" stroke="black" cx="646" cy="-118.5" rx="90.25" ry="18"/>
<text text-anchor="middle" x="646" y="-113.45" font-family="Times,serif" font-size="14.00">_nonReentrantBefore</text>
</g>
<!-- revert ReentrancyGuardReentrantCall() -->
<g id="node47" class="node">
<title>revert ReentrancyGuardReentrantCall()</title>
<ellipse fill="none" stroke="black" cx="2264" cy="-34" rx="157.3" ry="18"/>
<text text-anchor="middle" x="2264" y="-28.95" font-family="Times,serif" font-size="14.00">revert ReentrancyGuardReentrantCall()</text>
</g>
<!-- 2072__nonReentrantBefore&#45;&gt;revert ReentrancyGuardReentrantCall() -->
<g id="edge43" class="edge">
<title>2072__nonReentrantBefore&#45;&gt;revert ReentrancyGuardReentrantCall()</title>
<path fill="none" stroke="black" d="M695.93,-103.12C712.38,-98.96 730.85,-94.9 748,-92.5 1004.06,-56.64 1759.03,-41.96 2097.05,-37.07"/>
<polygon fill="black" stroke="black" points="2096.95,-40.57 2106.89,-36.93 2096.85,-33.57 2096.95,-40.57"/>
</g>
<!-- 74_transfer -->
<g id="node5" class="node">
<title>74_transfer</title>
<ellipse fill="none" stroke="black" cx="3232" cy="-118.5" rx="39.07" ry="18"/>
<text text-anchor="middle" x="3232" y="-113.45" font-family="Times,serif" font-size="14.00">transfer</text>
</g>
<!-- 74_balanceOf -->
<g id="node6" class="node">
<title>74_balanceOf</title>
<ellipse fill="none" stroke="black" cx="3126" cy="-118.5" rx="48.79" ry="18"/>
<text text-anchor="middle" x="3126" y="-113.45" font-family="Times,serif" font-size="14.00">balanceOf</text>
</g>
<!-- 74_transferFrom -->
<g id="node7" class="node">
<title>74_transferFrom</title>
<ellipse fill="none" stroke="black" cx="3349" cy="-118.5" rx="59.54" ry="18"/>
<text text-anchor="middle" x="3349" y="-113.45" font-family="Times,serif" font-size="14.00">transferFrom</text>
</g>
<!-- 74_symbol -->
<g id="node8" class="node">
<title>74_symbol</title>
<ellipse fill="none" stroke="black" cx="3021" cy="-118.5" rx="38.56" ry="18"/>
<text text-anchor="middle" x="3021" y="-113.45" font-family="Times,serif" font-size="14.00">symbol</text>
</g>
<!-- 74_totalSupply -->
<g id="node9" class="node">
<title>74_totalSupply</title>
<ellipse fill="none" stroke="black" cx="3480" cy="-118.5" rx="53.4" ry="18"/>
<text text-anchor="middle" x="3480" y="-113.45" font-family="Times,serif" font-size="14.00">totalSupply</text>
</g>
<!-- 74_allowance -->
<g id="node10" class="node">
<title>74_allowance</title>
<ellipse fill="none" stroke="black" cx="3600" cy="-118.5" rx="48.28" ry="18"/>
<text text-anchor="middle" x="3600" y="-113.45" font-family="Times,serif" font-size="14.00">allowance</text>
</g>
<!-- 74_approve -->
<g id="node11" class="node">
<title>74_approve</title>
<ellipse fill="none" stroke="black" cx="3707" cy="-118.5" rx="40.6" ry="18"/>
<text text-anchor="middle" x="3707" y="-113.45" font-family="Times,serif" font-size="14.00">approve</text>
</g>
<!-- 2003_removeBid -->
<g id="node12" class="node">
<title>2003_removeBid</title>
<ellipse fill="none" stroke="black" cx="1592" cy="-118.5" rx="52.38" ry="18"/>
<text text-anchor="middle" x="1592" y="-113.45" font-family="Times,serif" font-size="14.00">removeBid</text>
</g>
<!-- require(bool,string) -->
<g id="node46" class="node">
<title>require(bool,string)</title>
<ellipse fill="none" stroke="black" cx="2878" cy="-34" rx="83.08" ry="18"/>
<text text-anchor="middle" x="2878" y="-28.95" font-family="Times,serif" font-size="14.00">require(bool,string)</text>
</g>
<!-- 2003_removeBid&#45;&gt;require(bool,string) -->
<g id="edge44" class="edge">
<title>2003_removeBid&#45;&gt;require(bool,string)</title>
<path fill="none" stroke="black" d="M1620.77,-103.08C1630.72,-98.8 1642.12,-94.68 1653,-92.5 1714.72,-80.12 2725.02,-100.09 2786,-84.5 2807.01,-79.13 2828.45,-67.98 2845.35,-57.62"/>
<polygon fill="black" stroke="black" points="2846.89,-60.79 2853.46,-52.47 2843.14,-54.88 2846.89,-60.79"/>
</g>
<!-- 2003_receive -->
<g id="node13" class="node">
<title>2003_receive</title>
<ellipse fill="none" stroke="black" cx="914" cy="-267" rx="37.53" ry="18"/>
<text text-anchor="middle" x="914" y="-261.95" font-family="Times,serif" font-size="14.00">receive</text>
</g>
<!-- 2003_createMarketOrder -->
<g id="node14" class="node">
<title>2003_createMarketOrder</title>
<ellipse fill="none" stroke="black" cx="1636" cy="-267" rx="81.55" ry="18"/>
<text text-anchor="middle" x="1636" y="-261.95" font-family="Times,serif" font-size="14.00">createMarketOrder</text>
</g>
<!-- 2003_matchOrders -->
<g id="node16" class="node">
<title>2003_matchOrders</title>
<ellipse fill="none" stroke="black" cx="1689" cy="-195" rx="59.03" ry="18"/>
<text text-anchor="middle" x="1689" y="-189.95" font-family="Times,serif" font-size="14.00">matchOrders</text>
</g>
<!-- 2003_createMarketOrder&#45;&gt;2003_matchOrders -->
<g id="edge18" class="edge">
<title>2003_createMarketOrder&#45;&gt;2003_matchOrders</title>
<path fill="none" stroke="black" d="M1648.83,-249.05C1655.01,-240.89 1662.57,-230.91 1669.45,-221.82"/>
<polygon fill="black" stroke="black" points="1672.13,-224.08 1675.37,-214 1666.55,-219.86 1672.13,-224.08"/>
</g>
<!-- 2003_addBid -->
<g id="node18" class="node">
<title>2003_addBid</title>
<ellipse fill="none" stroke="black" cx="1174" cy="-195" rx="37.53" ry="18"/>
<text text-anchor="middle" x="1174" y="-189.95" font-family="Times,serif" font-size="14.00">addBid</text>
</g>
<!-- 2003_createMarketOrder&#45;&gt;2003_addBid -->
<g id="edge25" class="edge">
<title>2003_createMarketOrder&#45;&gt;2003_addBid</title>
<path fill="none" stroke="black" d="M1567.17,-257.06C1451.38,-242.01 1230.03,-213.22 1229,-213 1224.39,-211.99 1219.6,-210.78 1214.87,-209.47"/>
<polygon fill="black" stroke="black" points="1216.05,-206.17 1205.47,-206.71 1214.08,-212.89 1216.05,-206.17"/>
</g>
<!-- 2003_addAsk -->
<g id="node29" class="node">
<title>2003_addAsk</title>
<ellipse fill="none" stroke="black" cx="1277" cy="-195" rx="39.07" ry="18"/>
<text text-anchor="middle" x="1277" y="-189.95" font-family="Times,serif" font-size="14.00">addAsk</text>
</g>
<!-- 2003_createMarketOrder&#45;&gt;2003_addAsk -->
<g id="edge4" class="edge">
<title>2003_createMarketOrder&#45;&gt;2003_addAsk</title>
<path fill="none" stroke="black" d="M1576.32,-254.36C1505.22,-240.5 1387.97,-217.64 1323.34,-205.04"/>
<polygon fill="black" stroke="black" points="1324.26,-201.65 1313.77,-203.17 1322.92,-208.52 1324.26,-201.65"/>
</g>
<!-- 2003_createMarketOrder&#45;&gt;require(bool,string) -->
<g id="edge33" class="edge">
<title>2003_createMarketOrder&#45;&gt;require(bool,string)</title>
<path fill="none" stroke="black" d="M1715.93,-263.09C2100.43,-249.02 3742,-187.86 3760,-169 3783.47,-144.4 3783.92,-116.66 3760,-92.5 3744.56,-76.9 2991.25,-89.97 2970,-84.5 2949,-79.1 2927.56,-67.95 2910.66,-57.59"/>
<polygon fill="black" stroke="black" points="2912.87,-54.85 2902.55,-52.45 2909.12,-60.76 2912.87,-54.85"/>
</g>
<!-- 2003_lastPrice -->
<g id="node15" class="node">
<title>2003_lastPrice</title>
<ellipse fill="none" stroke="black" cx="1895" cy="-195" rx="42.65" ry="18"/>
<text text-anchor="middle" x="1895" y="-189.95" font-family="Times,serif" font-size="14.00">lastPrice</text>
</g>
<!-- 2003_requireActive -->
<g id="node41" class="node">
<title>2003_requireActive</title>
<ellipse fill="none" stroke="black" cx="1437" cy="-118.5" rx="84.62" ry="18"/>
<text text-anchor="middle" x="1437" y="-113.45" font-family="Times,serif" font-size="14.00">2003_requireActive</text>
</g>
<!-- 2003_lastPrice&#45;&gt;2003_requireActive -->
<g id="edge7" class="edge">
<title>2003_lastPrice&#45;&gt;2003_requireActive</title>
<path fill="none" stroke="black" d="M1855.24,-188.17C1827.72,-184.36 1790.21,-179.63 1757,-177 1706.9,-173.04 1579.56,-181.92 1531,-169 1509.84,-163.37 1488.1,-152.32 1470.85,-142.08"/>
<polygon fill="black" stroke="black" points="1472.91,-139.24 1462.55,-136.99 1469.25,-145.2 1472.91,-139.24"/>
</g>
<!-- 2003_lastPrice&#45;&gt;require(bool,string) -->
<g id="edge39" class="edge">
<title>2003_lastPrice&#45;&gt;require(bool,string)</title>
<path fill="none" stroke="black" d="M1934.76,-187.81C1961.81,-183.9 1998.47,-179.19 2031,-177 2041.95,-176.26 2811.88,-175.1 2821,-169 2822.19,-168.21 2850.07,-101.84 2866.39,-62.82"/>
<polygon fill="black" stroke="black" points="2869.54,-64.36 2870.16,-53.78 2863.08,-61.66 2869.54,-64.36"/>
</g>
<!-- 2003_matchOrders&#45;&gt;2003_removeBid -->
<g id="edge20" class="edge">
<title>2003_matchOrders&#45;&gt;2003_removeBid</title>
<path fill="none" stroke="black" d="M1665.58,-178.11C1661.35,-175.14 1657.02,-172.02 1653,-169 1641.95,-160.7 1630.09,-151.22 1619.8,-142.79"/>
<polygon fill="black" stroke="black" points="1622.32,-140.33 1612.38,-136.67 1617.87,-145.73 1622.32,-140.33"/>
</g>
<!-- 2003_updateTraderBalances -->
<g id="node19" class="node">
<title>2003_updateTraderBalances</title>
<ellipse fill="none" stroke="black" cx="1827" cy="-118.5" rx="93.32" ry="18"/>
<text text-anchor="middle" x="1827" y="-113.45" font-family="Times,serif" font-size="14.00">updateTraderBalances</text>
</g>
<!-- 2003_matchOrders&#45;&gt;2003_updateTraderBalances -->
<g id="edge14" class="edge">
<title>2003_matchOrders&#45;&gt;2003_updateTraderBalances</title>
<path fill="none" stroke="black" d="M1717.26,-178.74C1737.36,-167.89 1764.66,-153.16 1786.99,-141.1"/>
<polygon fill="black" stroke="black" points="1788.4,-144.32 1795.53,-136.49 1785.07,-138.16 1788.4,-144.32"/>
</g>
<!-- 2003_removeAsk -->
<g id="node23" class="node">
<title>2003_removeAsk</title>
<ellipse fill="none" stroke="black" cx="1992" cy="-118.5" rx="53.91" ry="18"/>
<text text-anchor="middle" x="1992" y="-113.45" font-family="Times,serif" font-size="14.00">removeAsk</text>
</g>
<!-- 2003_matchOrders&#45;&gt;2003_removeAsk -->
<g id="edge24" class="edge">
<title>2003_matchOrders&#45;&gt;2003_removeAsk</title>
<path fill="none" stroke="black" d="M1743.5,-187.75C1772.95,-184.44 1809.95,-180.36 1843,-177 1881.19,-173.12 1893.34,-183.22 1929,-169 1943.38,-163.27 1957.15,-153.17 1968.14,-143.58"/>
<polygon fill="black" stroke="black" points="1970.19,-146.45 1975.2,-137.12 1965.46,-141.29 1970.19,-146.45"/>
</g>
<!-- 2003_min -->
<g id="node34" class="node">
<title>2003_min</title>
<ellipse fill="none" stroke="black" cx="1689" cy="-118.5" rx="27" ry="18"/>
<text text-anchor="middle" x="1689" y="-113.45" font-family="Times,serif" font-size="14.00">min</text>
</g>
<!-- 2003_matchOrders&#45;&gt;2003_min -->
<g id="edge10" class="edge">
<title>2003_matchOrders&#45;&gt;2003_min</title>
<path fill="none" stroke="black" d="M1689,-176.72C1689,-168.32 1689,-157.99 1689,-148.43"/>
<polygon fill="black" stroke="black" points="1692.5,-148.46 1689,-138.46 1685.5,-148.46 1692.5,-148.46"/>
</g>
<!-- 2003_unfreezeBalance -->
<g id="node36" class="node">
<title>2003_unfreezeBalance</title>
<ellipse fill="none" stroke="black" cx="2136" cy="-118.5" rx="72.34" ry="18"/>
<text text-anchor="middle" x="2136" y="-113.45" font-family="Times,serif" font-size="14.00">unfreezeBalance</text>
</g>
<!-- 2003_matchOrders&#45;&gt;2003_unfreezeBalance -->
<g id="edge27" class="edge">
<title>2003_matchOrders&#45;&gt;2003_unfreezeBalance</title>
<path fill="none" stroke="black" d="M1742.72,-187.11C1772.27,-183.56 1809.6,-179.47 1843,-177 1890.02,-173.52 2009.87,-182.62 2055,-169 2073.38,-163.45 2091.8,-152.71 2106.42,-142.64"/>
<polygon fill="black" stroke="black" points="2108.12,-145.73 2114.22,-137.06 2104.05,-140.04 2108.12,-145.73"/>
</g>
<!-- 2003_matchOrders&#45;&gt;2003_requireActive -->
<g id="edge22" class="edge">
<title>2003_matchOrders&#45;&gt;2003_requireActive</title>
<path fill="none" stroke="black" d="M1632.36,-189.58C1601.77,-186.06 1563.68,-179.86 1531,-169 1510.66,-162.24 1489.42,-151.42 1472.29,-141.62"/>
<polygon fill="black" stroke="black" points="1474.41,-138.81 1464.02,-136.77 1470.87,-144.85 1474.41,-138.81"/>
</g>
<!-- 2003_getTradeStats -->
<g id="node17" class="node">
<title>2003_getTradeStats</title>
<ellipse fill="none" stroke="black" cx="1434" cy="-267" rx="61.59" ry="18"/>
<text text-anchor="middle" x="1434" y="-261.95" font-family="Times,serif" font-size="14.00">getTradeStats</text>
</g>
<!-- 2003_freezeBalance -->
<g id="node33" class="node">
<title>2003_freezeBalance</title>
<ellipse fill="none" stroke="black" cx="1167" cy="-118.5" rx="63.12" ry="18"/>
<text text-anchor="middle" x="1167" y="-113.45" font-family="Times,serif" font-size="14.00">freezeBalance</text>
</g>
<!-- 2003_addBid&#45;&gt;2003_freezeBalance -->
<g id="edge13" class="edge">
<title>2003_addBid&#45;&gt;2003_freezeBalance</title>
<path fill="none" stroke="black" d="M1172.38,-176.72C1171.58,-168.23 1170.6,-157.76 1169.69,-148.12"/>
<polygon fill="black" stroke="black" points="1173.2,-148.08 1168.78,-138.45 1166.23,-148.73 1173.2,-148.08"/>
</g>
<!-- 2003_sortBids -->
<g id="node39" class="node">
<title>2003_sortBids</title>
<ellipse fill="none" stroke="black" cx="802" cy="-118.5" rx="41.63" ry="18"/>
<text text-anchor="middle" x="802" y="-113.45" font-family="Times,serif" font-size="14.00">sortBids</text>
</g>
<!-- 2003_addBid&#45;&gt;2003_sortBids -->
<g id="edge8" class="edge">
<title>2003_addBid&#45;&gt;2003_sortBids</title>
<path fill="none" stroke="black" d="M1136.19,-194.24C1062.51,-194.19 902.61,-191.4 853,-169 840.9,-163.54 829.96,-153.92 821.34,-144.61"/>
<polygon fill="black" stroke="black" points="824.01,-142.34 814.82,-137.06 818.71,-146.92 824.01,-142.34"/>
</g>
<!-- 2003_addBid&#45;&gt;2003_requireActive -->
<g id="edge12" class="edge">
<title>2003_addBid&#45;&gt;2003_requireActive</title>
<path fill="none" stroke="black" d="M1203.66,-183.47C1211.78,-180.96 1220.65,-178.56 1229,-177 1278.93,-167.66 1294.15,-182.91 1343,-169 1363.91,-163.05 1385.49,-152.08 1402.69,-141.98"/>
<polygon fill="black" stroke="black" points="1404.24,-145.14 1410.98,-136.97 1400.62,-139.15 1404.24,-145.14"/>
</g>
<!-- 2003_hasSufficientBalance -->
<g id="node43" class="node">
<title>2003_hasSufficientBalance</title>
<ellipse fill="none" stroke="black" cx="974" cy="-118.5" rx="112.26" ry="18"/>
<text text-anchor="middle" x="974" y="-113.45" font-family="Times,serif" font-size="14.00">2003_hasSufficientBalance</text>
</g>
<!-- 2003_addBid&#45;&gt;2003_hasSufficientBalance -->
<g id="edge9" class="edge">
<title>2003_addBid&#45;&gt;2003_hasSufficientBalance</title>
<path fill="none" stroke="black" d="M1142.66,-184.73C1128.08,-180.25 1110.56,-174.63 1095,-169 1070.79,-160.23 1044.28,-149.52 1022.26,-140.3"/>
<polygon fill="black" stroke="black" points="1023.81,-137.16 1013.23,-136.5 1021.09,-143.61 1023.81,-137.16"/>
</g>
<!-- 2003_withdraw -->
<g id="node20" class="node">
<title>2003_withdraw</title>
<ellipse fill="none" stroke="black" cx="2199" cy="-267" rx="45.72" ry="18"/>
<text text-anchor="middle" x="2199" y="-261.95" font-family="Times,serif" font-size="14.00">withdraw</text>
</g>
<!-- 2003_withdraw&#45;&gt;74_transfer -->
<g id="edge48" class="edge">
<title>2003_withdraw&#45;&gt;74_transfer</title>
<path fill="none" stroke="black" d="M2232.09,-254.2C2238.93,-252.15 2246.14,-250.28 2253,-249 2457.14,-210.98 2998,-261.32 3184,-169 3195.26,-163.41 3205.36,-154.08 3213.35,-145.02"/>
<polygon fill="black" stroke="black" points="3216,-147.31 3219.65,-137.36 3210.59,-142.86 3216,-147.31"/>
</g>
<!-- 2003_nonReentrant -->
<g id="node44" class="node">
<title>2003_nonReentrant</title>
<ellipse fill="none" stroke="black" cx="2124" cy="-195" rx="83.6" ry="18"/>
<text text-anchor="middle" x="2124" y="-189.95" font-family="Times,serif" font-size="14.00">2003_nonReentrant</text>
</g>
<!-- 2003_withdraw&#45;&gt;2003_nonReentrant -->
<g id="edge26" class="edge">
<title>2003_withdraw&#45;&gt;2003_nonReentrant</title>
<path fill="none" stroke="black" d="M2181.98,-250.12C2172.73,-241.48 2161.08,-230.61 2150.65,-220.88"/>
<polygon fill="black" stroke="black" points="2153.07,-218.34 2143.37,-214.08 2148.29,-223.46 2153.07,-218.34"/>
</g>
<!-- 2003_withdraw&#45;&gt;require(bool,string) -->
<g id="edge45" class="edge">
<title>2003_withdraw&#45;&gt;require(bool,string)</title>
<path fill="none" stroke="black" d="M2231.77,-254.07C2238.69,-252.01 2246.02,-250.16 2253,-249 2336.22,-235.2 3701.07,-260.17 3771,-213 3815.95,-182.68 3828.15,-131.02 3790,-92.5 3781.99,-84.41 2981.03,-87.34 2970,-84.5 2949,-79.1 2927.55,-67.95 2910.65,-57.6"/>
<polygon fill="black" stroke="black" points="2912.87,-54.86 2902.55,-52.45 2909.12,-60.77 2912.87,-54.86"/>
</g>
<!-- 2003__isInactive -->
<g id="node21" class="node">
<title>2003__isInactive</title>
<ellipse fill="none" stroke="black" cx="2417" cy="-118.5" rx="51.35" ry="18"/>
<text text-anchor="middle" x="2417" y="-113.45" font-family="Times,serif" font-size="14.00">_isInactive</text>
</g>
<!-- abi.encodePacked() -->
<g id="node48" class="node">
<title>abi.encodePacked()</title>
<ellipse fill="none" stroke="black" cx="2523" cy="-34" rx="83.6" ry="18"/>
<text text-anchor="middle" x="2523" y="-28.95" font-family="Times,serif" font-size="14.00">abi.encodePacked()</text>
</g>
<!-- 2003__isInactive&#45;&gt;abi.encodePacked() -->
<g id="edge32" class="edge">
<title>2003__isInactive&#45;&gt;abi.encodePacked()</title>
<path fill="none" stroke="black" d="M2437.44,-101.59C2453.11,-89.39 2475,-72.36 2492.71,-58.58"/>
<polygon fill="black" stroke="black" points="2494.6,-61.54 2500.34,-52.64 2490.3,-56.02 2494.6,-61.54"/>
</g>
<!-- keccak256(bytes) -->
<g id="node49" class="node">
<title>keccak256(bytes)</title>
<ellipse fill="none" stroke="black" cx="2701" cy="-34" rx="75.92" ry="18"/>
<text text-anchor="middle" x="2701" y="-28.95" font-family="Times,serif" font-size="14.00">keccak256(bytes)</text>
</g>
<!-- 2003__isInactive&#45;&gt;keccak256(bytes) -->
<g id="edge37" class="edge">
<title>2003__isInactive&#45;&gt;keccak256(bytes)</title>
<path fill="none" stroke="black" d="M2446.14,-103.26C2456.03,-99.06 2467.29,-94.93 2478,-92.5 2537.91,-78.89 2557.18,-102.22 2616,-84.5 2635.05,-78.76 2654.36,-68 2669.75,-57.97"/>
<polygon fill="black" stroke="black" points="2671.68,-60.89 2678,-52.39 2667.76,-55.09 2671.68,-60.89"/>
</g>
<!-- 2003_deposit -->
<g id="node22" class="node">
<title>2003_deposit</title>
<ellipse fill="none" stroke="black" cx="2399" cy="-267" rx="37.53" ry="18"/>
<text text-anchor="middle" x="2399" y="-261.95" font-family="Times,serif" font-size="14.00">deposit</text>
</g>
<!-- 2003_deposit&#45;&gt;74_transferFrom -->
<g id="edge46" class="edge">
<title>2003_deposit&#45;&gt;74_transferFrom</title>
<path fill="none" stroke="black" d="M2426.7,-254.49C2432.95,-252.32 2439.63,-250.31 2446,-249 2709.38,-194.71 2783.15,-246.33 3050,-213 3153.27,-200.1 3184.37,-210.07 3280,-169 3295,-162.56 3309.94,-152.42 3322.06,-143"/>
<polygon fill="black" stroke="black" points="3323.97,-145.95 3329.56,-136.95 3319.58,-140.5 3323.97,-145.95"/>
</g>
<!-- 2003_deposit&#45;&gt;2003_nonReentrant -->
<g id="edge15" class="edge">
<title>2003_deposit&#45;&gt;2003_nonReentrant</title>
<path fill="none" stroke="black" d="M2370.48,-254.82C2364.74,-252.75 2358.71,-250.71 2353,-249 2300.92,-233.42 2241.03,-219.7 2195.57,-210.13"/>
<polygon fill="black" stroke="black" points="2196.32,-206.71 2185.81,-208.09 2194.89,-213.56 2196.32,-206.71"/>
</g>
<!-- 2003_deposit&#45;&gt;require(bool,string) -->
<g id="edge40" class="edge">
<title>2003_deposit&#45;&gt;require(bool,string)</title>
<path fill="none" stroke="black" d="M2426.69,-254.45C2432.94,-252.27 2439.62,-250.28 2446,-249 2760.98,-185.66 2847.26,-231.69 3168,-213 3314.74,-204.45 3727.58,-276.34 3828,-169 3851.23,-144.17 3851.93,-116.65 3828,-92.5 3819.61,-84.03 2981.54,-87.47 2970,-84.5 2949,-79.11 2927.55,-67.96 2910.65,-57.6"/>
<polygon fill="black" stroke="black" points="2912.86,-54.86 2902.55,-52.46 2909.11,-60.77 2912.86,-54.86"/>
</g>
<!-- 2003_removeAsk&#45;&gt;require(bool,string) -->
<g id="edge36" class="edge">
<title>2003_removeAsk&#45;&gt;require(bool,string)</title>
<path fill="none" stroke="black" d="M2021.76,-103.1C2032.04,-98.83 2043.8,-94.7 2055,-92.5 2134.7,-76.81 2707.34,-104.78 2786,-84.5 2806.99,-79.09 2828.44,-67.94 2845.34,-57.59"/>
<polygon fill="black" stroke="black" points="2846.88,-60.76 2853.45,-52.45 2843.13,-54.84 2846.88,-60.76"/>
</g>
<!-- 2003_getAsks -->
<g id="node24" class="node">
<title>2003_getAsks</title>
<ellipse fill="none" stroke="black" cx="2303" cy="-267" rx="40.6" ry="18"/>
<text text-anchor="middle" x="2303" y="-261.95" font-family="Times,serif" font-size="14.00">getAsks</text>
</g>
<!-- 2003__getInactiveIndex -->
<g id="node25" class="node">
<title>2003__getInactiveIndex</title>
<ellipse fill="none" stroke="black" cx="2564" cy="-118.5" rx="77.45" ry="18"/>
<text text-anchor="middle" x="2564" y="-113.45" font-family="Times,serif" font-size="14.00">_getInactiveIndex</text>
</g>
<!-- 2003__getInactiveIndex&#45;&gt;abi.encodePacked() -->
<g id="edge41" class="edge">
<title>2003__getInactiveIndex&#45;&gt;abi.encodePacked()</title>
<path fill="none" stroke="black" d="M2555.5,-100.41C2550.04,-89.42 2542.83,-74.9 2536.58,-62.33"/>
<polygon fill="black" stroke="black" points="2539.88,-61.11 2532.3,-53.71 2533.62,-64.22 2539.88,-61.11"/>
</g>
<!-- 2003__getInactiveIndex&#45;&gt;keccak256(bytes) -->
<g id="edge38" class="edge">
<title>2003__getInactiveIndex&#45;&gt;keccak256(bytes)</title>
<path fill="none" stroke="black" d="M2591.07,-101.2C2611.99,-88.6 2641.17,-71.03 2664.21,-57.15"/>
<polygon fill="black" stroke="black" points="2665.93,-60.2 2672.69,-52.05 2662.32,-54.21 2665.93,-60.2"/>
</g>
<!-- 2003_removeFromInactive -->
<g id="node26" class="node">
<title>2003_removeFromInactive</title>
<ellipse fill="none" stroke="black" cx="2627" cy="-195" rx="89.23" ry="18"/>
<text text-anchor="middle" x="2627" y="-189.95" font-family="Times,serif" font-size="14.00">removeFromInactive</text>
</g>
<!-- 2003_removeFromInactive&#45;&gt;2003__getInactiveIndex -->
<g id="edge1" class="edge">
<title>2003_removeFromInactive&#45;&gt;2003__getInactiveIndex</title>
<path fill="none" stroke="black" d="M2612.7,-177.09C2604.71,-167.64 2594.57,-155.65 2585.62,-145.07"/>
<polygon fill="black" stroke="black" points="2588.56,-143.13 2579.43,-137.75 2583.22,-147.65 2588.56,-143.13"/>
</g>
<!-- 2003_onlyAdmin -->
<g id="node42" class="node">
<title>2003_onlyAdmin</title>
<ellipse fill="none" stroke="black" cx="2736" cy="-118.5" rx="76.43" ry="18"/>
<text text-anchor="middle" x="2736" y="-113.45" font-family="Times,serif" font-size="14.00">2003_onlyAdmin</text>
</g>
<!-- 2003_removeFromInactive&#45;&gt;2003_onlyAdmin -->
<g id="edge5" class="edge">
<title>2003_removeFromInactive&#45;&gt;2003_onlyAdmin</title>
<path fill="none" stroke="black" d="M2651.46,-177.28C2666.57,-166.95 2686.16,-153.56 2702.68,-142.27"/>
<polygon fill="black" stroke="black" points="2704.46,-145.29 2710.75,-136.76 2700.51,-139.51 2704.46,-145.29"/>
</g>
<!-- 2003_removeFromInactive&#45;&gt;require(bool,string) -->
<g id="edge34" class="edge">
<title>2003_removeFromInactive&#45;&gt;require(bool,string)</title>
<path fill="none" stroke="black" d="M2689.83,-181.83C2701.48,-179.94 2713.58,-178.21 2725,-177 2736.33,-175.8 2922.1,-177.21 2930,-169 2953.57,-144.49 2942.22,-124.23 2930,-92.5 2925.26,-80.19 2916.53,-68.88 2907.56,-59.61"/>
<polygon fill="black" stroke="black" points="2910.07,-57.17 2900.45,-52.74 2905.21,-62.21 2910.07,-57.17"/>
</g>
<!-- 2003_createLimitOrder -->
<g id="node27" class="node">
<title>2003_createLimitOrder</title>
<ellipse fill="none" stroke="black" cx="1226" cy="-267" rx="75.41" ry="18"/>
<text text-anchor="middle" x="1226" y="-261.95" font-family="Times,serif" font-size="14.00">createLimitOrder</text>
</g>
<!-- 2003_createLimitOrder&#45;&gt;2003_addBid -->
<g id="edge30" class="edge">
<title>2003_createLimitOrder&#45;&gt;2003_addBid</title>
<path fill="none" stroke="black" d="M1213.41,-249.05C1207.26,-240.77 1199.72,-230.62 1192.89,-221.42"/>
<polygon fill="black" stroke="black" points="1195.79,-219.46 1187.02,-213.52 1190.17,-223.64 1195.79,-219.46"/>
</g>
<!-- 2003_createLimitOrder&#45;&gt;2003_addAsk -->
<g id="edge6" class="edge">
<title>2003_createLimitOrder&#45;&gt;2003_addAsk</title>
<path fill="none" stroke="black" d="M1238.35,-249.05C1244.38,-240.77 1251.78,-230.62 1258.48,-221.42"/>
<polygon fill="black" stroke="black" points="1261.17,-223.67 1264.23,-213.53 1255.51,-219.55 1261.17,-223.67"/>
</g>
<!-- 2003_constructor -->
<g id="node28" class="node">
<title>2003_constructor</title>
<ellipse fill="none" stroke="black" cx="2507" cy="-267" rx="52.38" ry="18"/>
<text text-anchor="middle" x="2507" y="-261.95" font-family="Times,serif" font-size="14.00">constructor</text>
</g>
<!-- 2003_sortAsks -->
<g id="node30" class="node">
<title>2003_sortAsks</title>
<ellipse fill="none" stroke="black" cx="1291" cy="-118.5" rx="43.16" ry="18"/>
<text text-anchor="middle" x="1291" y="-113.45" font-family="Times,serif" font-size="14.00">sortAsks</text>
</g>
<!-- 2003_addAsk&#45;&gt;2003_sortAsks -->
<g id="edge16" class="edge">
<title>2003_addAsk&#45;&gt;2003_sortAsks</title>
<path fill="none" stroke="black" d="M1280.25,-176.72C1281.84,-168.23 1283.81,-157.76 1285.62,-148.12"/>
<polygon fill="black" stroke="black" points="1289.04,-148.91 1287.44,-138.43 1282.16,-147.61 1289.04,-148.91"/>
</g>
<!-- 2003_addAsk&#45;&gt;2003_freezeBalance -->
<g id="edge2" class="edge">
<title>2003_addAsk&#45;&gt;2003_freezeBalance</title>
<path fill="none" stroke="black" d="M1255.25,-179.8C1249.92,-176.29 1244.24,-172.53 1239,-169 1226.09,-160.32 1211.96,-150.64 1199.67,-142.17"/>
<polygon fill="black" stroke="black" points="1201.73,-139.34 1191.51,-136.53 1197.75,-145.09 1201.73,-139.34"/>
</g>
<!-- 2003_addAsk&#45;&gt;2003_requireActive -->
<g id="edge3" class="edge">
<title>2003_addAsk&#45;&gt;2003_requireActive</title>
<path fill="none" stroke="black" d="M1307.55,-183.32C1318.81,-179.15 1331.61,-174.13 1343,-169 1361.52,-160.65 1381.5,-150.33 1398.26,-141.27"/>
<polygon fill="black" stroke="black" points="1399.81,-144.41 1406.91,-136.55 1396.46,-138.27 1399.81,-144.41"/>
</g>
<!-- 2003_addAsk&#45;&gt;2003_hasSufficientBalance -->
<g id="edge29" class="edge">
<title>2003_addAsk&#45;&gt;2003_hasSufficientBalance</title>
<path fill="none" stroke="black" d="M1246.5,-183.35C1238.31,-180.87 1229.4,-178.52 1221,-177 1165.78,-167.01 1149.69,-181.57 1095,-169 1068.07,-162.81 1039.4,-151.32 1016.72,-140.96"/>
<polygon fill="black" stroke="black" points="1018.35,-137.86 1007.8,-136.79 1015.38,-144.2 1018.35,-137.86"/>
</g>
<!-- 2003_addPair -->
<g id="node31" class="node">
<title>2003_addPair</title>
<ellipse fill="none" stroke="black" cx="2773" cy="-195" rx="39.07" ry="18"/>
<text text-anchor="middle" x="2773" y="-189.95" font-family="Times,serif" font-size="14.00">addPair</text>
</g>
<!-- 2003_addPair&#45;&gt;74_symbol -->
<g id="edge47" class="edge">
<title>2003_addPair&#45;&gt;74_symbol</title>
<path fill="none" stroke="black" d="M2811.93,-191.84C2860.7,-188.64 2941.13,-181.63 2968,-169 2980.39,-163.18 2991.81,-153.37 3000.86,-144.02"/>
<polygon fill="black" stroke="black" points="3003.29,-146.55 3007.44,-136.8 2998.11,-141.83 3003.29,-146.55"/>
</g>
<!-- 2003_addPair&#45;&gt;2003_onlyAdmin -->
<g id="edge28" class="edge">
<title>2003_addPair&#45;&gt;2003_onlyAdmin</title>
<path fill="none" stroke="black" d="M2764.6,-177.09C2760.17,-168.17 2754.63,-157.01 2749.6,-146.89"/>
<polygon fill="black" stroke="black" points="2752.88,-145.61 2745.29,-138.21 2746.61,-148.72 2752.88,-145.61"/>
</g>
<!-- 2003_removeOrder -->
<g id="node32" class="node">
<title>2003_removeOrder</title>
<ellipse fill="none" stroke="black" cx="2287" cy="-118.5" rx="60.56" ry="18"/>
<text text-anchor="middle" x="2287" y="-113.45" font-family="Times,serif" font-size="14.00">removeOrder</text>
</g>
<!-- 2003_addToInactive -->
<g id="node35" class="node">
<title>2003_addToInactive</title>
<ellipse fill="none" stroke="black" cx="2456" cy="-195" rx="63.63" ry="18"/>
<text text-anchor="middle" x="2456" y="-189.95" font-family="Times,serif" font-size="14.00">addToInactive</text>
</g>
<!-- 2003_addToInactive&#45;&gt;2003__isInactive -->
<g id="edge11" class="edge">
<title>2003_addToInactive&#45;&gt;2003__isInactive</title>
<path fill="none" stroke="black" d="M2446.95,-176.72C2442.28,-167.79 2436.46,-156.68 2431.2,-146.63"/>
<polygon fill="black" stroke="black" points="2434.44,-145.26 2426.7,-138.03 2428.24,-148.51 2434.44,-145.26"/>
</g>
<!-- 2003_addToInactive&#45;&gt;2003_onlyAdmin -->
<g id="edge21" class="edge">
<title>2003_addToInactive&#45;&gt;2003_onlyAdmin</title>
<path fill="none" stroke="black" d="M2501.73,-182.15C2510.72,-180.16 2520.12,-178.32 2529,-177 2582.31,-169.08 2598.42,-184.63 2650,-169 2669.39,-163.13 2689.11,-152.2 2704.77,-142.11"/>
<polygon fill="black" stroke="black" points="2706.32,-145.29 2712.7,-136.83 2702.43,-139.46 2706.32,-145.29"/>
</g>
<!-- 2003_addToInactive&#45;&gt;require(bool,string) -->
<g id="edge42" class="edge">
<title>2003_addToInactive&#45;&gt;require(bool,string)</title>
<path fill="none" stroke="black" d="M2501.3,-181.92C2510.41,-179.93 2519.96,-178.14 2529,-177 2539.01,-175.74 2884.95,-176.21 2892,-169 2919.24,-141.15 2905.11,-92.82 2891.91,-62.45"/>
<polygon fill="black" stroke="black" points="2895.16,-61.14 2887.8,-53.52 2888.8,-64.06 2895.16,-61.14"/>
</g>
<!-- 2003_getCurrentPrice -->
<g id="node37" class="node">
<title>2003_getCurrentPrice</title>
<ellipse fill="none" stroke="black" cx="2647" cy="-267" rx="69.26" ry="18"/>
<text text-anchor="middle" x="2647" y="-261.95" font-family="Times,serif" font-size="14.00">getCurrentPrice</text>
</g>
<!-- revert(string) -->
<g id="node45" class="node">
<title>revert(string)</title>
<ellipse fill="none" stroke="black" cx="3039" cy="-34" rx="59.54" ry="18"/>
<text text-anchor="middle" x="3039" y="-28.95" font-family="Times,serif" font-size="14.00">revert(string)</text>
</g>
<!-- 2003_getCurrentPrice&#45;&gt;revert(string) -->
<g id="edge35" class="edge">
<title>2003_getCurrentPrice&#45;&gt;revert(string)</title>
<path fill="none" stroke="black" d="M2695.86,-253.91C2705.47,-251.95 2715.51,-250.17 2725,-249 2788.99,-241.1 3840.12,-259.29 3885,-213 3922.28,-174.55 3921.56,-131.63 3885,-92.5 3832.61,-36.43 3304.43,-33.55 3110.18,-34.41"/>
<polygon fill="black" stroke="black" points="3110.2,-30.91 3100.22,-34.46 3110.24,-37.91 3110.2,-30.91"/>
</g>
<!-- 2003_getBids -->
<g id="node38" class="node">
<title>2003_getBids</title>
<ellipse fill="none" stroke="black" cx="2773" cy="-267" rx="39.07" ry="18"/>
<text text-anchor="middle" x="2773" y="-261.95" font-family="Times,serif" font-size="14.00">getBids</text>
</g>
<!-- 2003_cancelOrderById -->
<g id="node40" class="node">
<title>2003_cancelOrderById</title>
<ellipse fill="none" stroke="black" cx="2300" cy="-195" rx="74.38" ry="18"/>
<text text-anchor="middle" x="2300" y="-189.95" font-family="Times,serif" font-size="14.00">cancelOrderById</text>
</g>
<!-- 2003_cancelOrderById&#45;&gt;2003__isInactive -->
<g id="edge17" class="edge">
<title>2003_cancelOrderById&#45;&gt;2003__isInactive</title>
<path fill="none" stroke="black" d="M2337.85,-179.16C2344.4,-176.1 2351.02,-172.68 2357,-169 2369.01,-161.61 2381.2,-152.02 2391.43,-143.24"/>
<polygon fill="black" stroke="black" points="2393.54,-146.05 2398.73,-136.82 2388.91,-140.8 2393.54,-146.05"/>
</g>
<!-- 2003_cancelOrderById&#45;&gt;2003_removeOrder -->
<g id="edge23" class="edge">
<title>2003_cancelOrderById&#45;&gt;2003_removeOrder</title>
<path fill="none" stroke="black" d="M2296.98,-176.72C2295.5,-168.23 2293.68,-157.76 2291.99,-148.12"/>
<polygon fill="black" stroke="black" points="2295.47,-147.68 2290.3,-138.43 2288.58,-148.89 2295.47,-147.68"/>
</g>
<!-- 2003_cancelOrderById&#45;&gt;2003_unfreezeBalance -->
<g id="edge19" class="edge">
<title>2003_cancelOrderById&#45;&gt;2003_unfreezeBalance</title>
<path fill="none" stroke="black" d="M2250.09,-181.23C2239,-177.77 2227.44,-173.67 2217,-169 2200.38,-161.57 2183.01,-151.33 2168.64,-142.09"/>
<polygon fill="black" stroke="black" points="2170.77,-139.3 2160.49,-136.73 2166.92,-145.15 2170.77,-139.3"/>
</g>
<!-- 2003_cancelOrderById&#45;&gt;require(bool,string) -->
<g id="edge31" class="edge">
<title>2003_cancelOrderById&#45;&gt;require(bool,string)</title>
<path fill="none" stroke="black" d="M2352.01,-181.81C2362.23,-179.86 2372.91,-178.11 2383,-177 2396.01,-175.57 2844.04,-177.48 2854,-169 2883.87,-143.57 2885.1,-94.79 2882.26,-63.63"/>
<polygon fill="black" stroke="black" points="2885.75,-63.29 2881.15,-53.75 2878.79,-64.08 2885.75,-63.29"/>
</g>
</g>
</svg>
